<svg xmlns="http://www.w3.org/2000/svg" viewBox="0 0 128 128" width="128" height="128">
  <defs>
    <linearGradient id="badgeGrad" x1="0%" y1="0%" x2="100%" y2="100%">
      <stop offset="0%" stop-color="#2563eb" />
      <stop offset="100%" stop-color="#0ea5e9" />
    </linearGradient>
  </defs>
  <rect x="0" y="0" width="128" height="128" rx="42" fill="url(#badgeGrad)" />
  
  <!-- Doctor Icon -->
  <g transform="translate(0, 4)">
    <!-- Head -->
    <circle cx="64" cy="36" r="18" fill="#ffffff" />
    
    <!-- Shoulders / Body -->
    <path d="M 28 96 C 28 76, 40 68, 64 68 C 88 68, 100 76, 100 96 C 100 102, 96 104, 90 104 L 38 104 C 32 104, 28 102, 28 96 Z" fill="#ffffff" />
    
    <!-- Stethoscope (Overlaid on body) -->
    <!-- U-tube around neck -->
    <path d="M 48 68 C 48 86, 80 86, 80 68" fill="none" stroke="#0ea5e9" stroke-width="5" stroke-linecap="round" />
    
    <!-- Left hanger -->
    <path d="M 48 68 L 48 76" fill="none" stroke="#0ea5e9" stroke-width="5" stroke-linecap="round" />
          
    <!-- Right hanger and chestpiece -->
    <path d="M 80 68 L 80 82" fill="none" stroke="#0ea5e9" stroke-width="5" stroke-linecap="round" />
    <circle cx="80" cy="88" r="6" fill="#0ea5e9" />
    
    <!-- Stethoscope Ear Pieces -->
    <path d="M 48 68 C 48 60, 52 56, 52 56" fill="none" stroke="#0ea5e9" stroke-width="3" stroke-linecap="round" />
    <path d="M 80 68 C 80 60, 76 56, 76 56" fill="none" stroke="#0ea5e9" stroke-width="3" stroke-linecap="round" />
  </g>
</svg>
